<svg width="108" height="30" viewBox="0 0 108 30" fill="none" xmlns="http://www.w3.org/2000/svg">
<path d="M20.5243 11.139L24.1332 0.839421H18.7567C17.7568 3.62297 16.7542 6.43783 15.6751 9.45568L7.58594 0.539795C5.0344 7.75403 2.57617 14.7113 0.0859375 21.7592H5.50911L9.59549 10.3103L20.3214 22.1091L23.5278 11.139H20.5243ZM104.064 8.91204C102.007 8.80407 99.9253 8.75818 97.8778 9.0767C94.8814 9.54638 92.7091 10.9743 91.7998 13.9414C91.4716 15.0131 91.0516 16.0609 90.6936 17.1196C89.8201 19.7239 91.1938 21.6621 94.0123 21.7862C94.9617 21.8289 95.9155 21.7862 96.8649 21.8094C97.3803 21.8246 97.9055 21.6961 98.4014 21.9109C98.3015 22.7229 97.9288 23.7918 97.5941 24.2496C96.9582 25.1161 95.6887 25.6312 94.7479 25.4071C93.7621 25.175 93.7008 24.3992 93.703 23.5726H88.4855C87.4997 25.7089 88.3943 27.7712 90.7533 28.8741C95.3073 31.0066 101.347 28.7667 103.159 24.1465C104.577 20.5359 105.842 16.8664 107.075 13.1926C107.907 10.7147 106.724 9.05348 104.064 8.9115L104.064 8.91204ZM100.22 17.1283H96.4558C96.3777 15.8607 96.7103 14.6816 97.5029 13.9204C98.4882 12.9675 99.8998 13.6083 101.269 13.4901C101.182 14.91 100.614 16.0124 100.22 17.1283ZM41.6571 8.82782H33.8121L35.6426 5.39643H42.8968C43.416 3.89506 43.9331 2.41259 44.474 0.832942H29.1734L24.8776 8.71769C25.9247 9.0551 26.8676 8.66748 27.8105 9.05132L20.91 21.749H26.7276L31.2605 13.4437H40.0642L41.6571 8.82782ZM61.4938 8.92662L57.0901 15.2366L56.7759 15.1518C56.4813 13.0809 56.1846 11.0105 55.8905 8.9223H50.7256C51.3338 13.2688 51.9251 17.5413 52.5159 21.8181L47.1611 29.6105H53.2945C55.0073 27.491 67.2355 9.66677 67.4601 8.92877L61.4938 8.92662ZM88.3493 9.35473C87.9462 9.22203 87.5321 9.12537 87.1118 9.0659C84.4669 8.6718 81.8025 8.93741 79.1495 8.87371C78.3737 8.85103 77.5957 8.87371 76.8096 8.87371C75.2731 13.2142 73.773 17.4506 72.2425 21.7846H77.6847C78.6705 19.0151 79.6557 16.2548 80.6415 13.4626C81.9723 13.5959 83.244 13.252 84.583 13.7811L81.8052 21.7846H87.2176C88.2625 18.8315 89.3557 15.9195 90.3154 12.9675C90.8943 11.1806 90.1505 9.9556 88.3493 9.35473ZM46.3094 0.84104L38.9048 21.7387H44.3682C46.8269 14.8025 49.2765 7.86416 51.7602 0.84212H46.3094V0.84104ZM69.5179 8.94983C68.0042 13.2374 66.5171 17.4484 64.9845 21.7571H70.4332C71.9295 17.5159 73.4258 13.2774 74.9514 8.94983H69.5179ZM77.0114 3.14195H71.6094C71.1243 4.45382 70.59 5.73817 70.2297 7.16395H75.6062C76.0641 5.85424 76.5199 4.54668 77.0114 3.14195Z" fill="white"/>
</svg>
