<svg width="104" height="29" viewBox="0 0 104 29" fill="none" xmlns="http://www.w3.org/2000/svg">
<g clip-path="url(#clip0_25_85)">
<path d="M19.8693 10.6847L23.3633 0.804989H18.1581C17.19 3.47506 16.2194 6.17517 15.1746 9.06999L7.34312 0.517578C4.87286 7.4377 2.49294 14.1113 0.0820312 20.872H5.33246L9.28866 9.88976L19.6729 21.2075L22.7771 10.6847H19.8693ZM100.748 8.54851C98.756 8.44493 96.7411 8.40092 94.7588 8.70645C91.8578 9.15699 89.7547 10.5267 88.8744 13.3729C88.5566 14.4008 88.1501 15.406 87.8034 16.4215C86.9577 18.9196 88.2877 20.7787 91.0164 20.8978C91.9356 20.9388 92.859 20.8978 93.7782 20.9201C94.2771 20.9346 94.7856 20.8114 95.2657 21.0175C95.169 21.7963 94.8082 22.8217 94.4841 23.2608C93.8685 24.092 92.6394 24.586 91.7286 24.3711C90.7742 24.1484 90.7149 23.4043 90.717 22.6114H85.6656C84.7112 24.6606 85.5774 26.6388 87.8612 27.6968C92.2701 29.7423 98.1178 27.5937 99.8721 23.1619C101.245 19.6985 102.469 16.1786 103.663 12.6546C104.468 10.2776 103.323 8.68419 100.748 8.54799L100.748 8.54851ZM97.0263 16.4298H93.3821C93.3065 15.2138 93.6284 14.0828 94.3958 13.3527C95.3497 12.4386 96.7164 13.0533 98.0416 12.9399C97.9576 14.3019 97.4076 15.3594 97.0263 16.4298ZM40.329 8.46772H32.7338L34.506 5.17622H41.5292C42.0319 3.73606 42.5324 2.31402 43.0561 0.798775H28.2429L24.084 8.36208C25.0977 8.68574 26.0106 8.31392 26.9235 8.68211L20.2428 20.8621H25.8751L30.2636 12.8954H38.7868L40.329 8.46772ZM59.5338 8.56249L55.2703 14.6152L54.9662 14.5339C54.681 12.5474 54.3937 10.5614 54.109 8.55835H49.1086C49.6974 12.7276 50.2699 16.8259 50.8419 20.9284L45.6577 28.4031H51.5956C53.2539 26.37 65.0925 9.27247 65.31 8.56456L59.5338 8.56249ZM85.5338 8.97315C85.1436 8.84586 84.7426 8.75314 84.3357 8.6961C81.7751 8.31806 79.1956 8.57285 76.6271 8.51174C75.876 8.48999 75.1228 8.51174 74.3617 8.51174C72.8741 12.6753 71.4218 16.7389 69.9401 20.8963H75.2089C76.1633 18.2397 77.1171 15.5919 78.0715 12.9135C79.36 13.0414 80.5912 12.7116 81.8875 13.2191L79.1982 20.8963H84.4381C85.4497 18.0636 86.5081 15.2703 87.4373 12.4386C87.9977 10.7245 87.2776 9.54952 85.5338 8.97315ZM44.833 0.806542L37.6644 20.8523H42.9537C45.3341 14.1988 47.7056 7.54335 50.1102 0.807578H44.833V0.806542ZM67.3023 8.58476C65.8368 12.6976 64.3971 16.7369 62.9133 20.8699H68.1884C69.637 16.8016 71.0857 12.7359 72.5627 8.58476H67.3023ZM74.5571 3.01365H69.3271C68.8575 4.27204 68.3402 5.50402 67.9914 6.87169H73.1967C73.64 5.61536 74.0812 4.36111 74.5571 3.01365Z" fill="white"/>
</g>
<defs>
<clipPath id="clip0_25_85">
<rect width="104" height="29" fill="white"/>
</clipPath>
</defs>
</svg>
