<svg xmlns="http://www.w3.org/2000/svg" width="198.00000000000003" height="56"><path d="M37.828 20.633 44.48 1.555h-9.91c-1.843 5.156-3.691 10.37-5.68 15.96L13.98 1C9.277 14.363 4.746 27.25.156 40.305h9.996l7.532-21.207 19.77 21.855 5.91-20.32h-5.536zm153.98-4.125c-3.792-.2-7.628-.285-11.402.305-5.523.87-9.527 3.515-11.203 9.011-.605 1.985-1.379 3.926-2.039 5.887-1.61 4.824.922 8.414 6.117 8.644 1.75.079 3.508 0 5.258.043.95.028 1.918-.21 2.832.188-.184 1.504-.871 3.484-1.488 4.332-1.172 1.605-3.512 2.559-5.246 2.144-1.817-.43-1.93-1.867-1.926-3.398h-9.617c-1.817 3.957-.168 7.777 4.18 9.82 8.394 3.95 19.527-.199 22.867-8.757 2.613-6.688 4.945-13.485 7.218-20.29 1.532-4.59-.648-7.667-5.55-7.93zm-7.085 15.219h-6.938c-.144-2.348.469-4.532 1.93-5.942 1.816-1.765 4.418-.578 6.941-.797-.16 2.63-1.207 4.672-1.933 6.739zM76.78 16.352h-14.46l3.374-6.356h13.371c.957-2.781 1.91-5.527 2.907-8.453H53.77l-7.918 14.605c1.93.625 3.668-.093 5.406.618l-12.719 23.52h10.723l8.355-15.384h16.227l2.937-8.55zm36.563.183-8.117 11.688-.579-.157c-.543-3.836-1.09-7.671-1.632-11.539h-9.52c1.121 8.051 2.211 15.965 3.3 23.887l-9.87 14.434H98.23c3.157-3.926 25.696-36.942 26.11-38.309l-10.996-.004zm49.5.793a13.159 13.159 0 0 0-2.281-.535c-4.875-.73-9.786-.238-14.676-.356-1.43-.042-2.864 0-4.313 0-2.832 8.04-5.597 15.887-8.418 23.915h10.031c1.817-5.13 3.633-10.243 5.45-15.415 2.453.247 4.797-.39 7.265.59l-5.12 14.825h9.976c1.926-5.47 3.941-10.864 5.71-16.332 1.067-3.31-.304-5.579-3.624-6.692zM85.355 1.558 71.707 40.267h10.07c4.532-12.848 9.047-25.7 13.625-38.707H85.355zm42.778 15.02c-2.79 7.942-5.531 15.742-8.356 23.723h10.043c2.758-7.856 5.516-15.707 8.328-23.723h-10.015zM141.945 5.82h-9.957c-.894 2.43-1.879 4.809-2.543 7.45h9.91c.844-2.426 1.684-4.848 2.59-7.45zm0 0"/></svg>