<svg width="23" height="18" viewBox="0 0 23 18" fill="none" xmlns="http://www.w3.org/2000/svg">
<path d="M22.0671 0.333252C21.2004 0.820752 19.5212 1.52492 18.5462 1.74159C18.4921 1.74159 18.4921 1.74159 18.4379 1.74159C17.5712 0.874919 16.3796 0.333252 15.0254 0.333252C12.3171 0.333252 10.1504 2.49992 10.1504 5.20825C10.1504 5.37075 10.1504 5.58742 10.1504 5.74992C6.52122 5.74992 3.75872 3.85409 1.75456 1.41659C1.53789 1.95825 1.48372 2.82492 1.48372 3.63742C1.48372 5.15409 2.67539 6.67075 4.51706 7.59159C4.19206 7.69992 3.81289 7.75409 3.43372 7.75409C2.78372 7.75409 2.13372 7.59159 1.53789 7.10409V7.15825C1.53789 9.27075 3.81289 10.7333 5.81706 11.1124C5.38372 11.3291 4.57122 11.3833 4.19206 11.3833C3.92122 11.3833 2.89206 11.2749 2.62122 11.2208C3.16289 12.9541 5.16706 13.9291 7.11706 13.9833C5.60039 15.1749 4.57122 15.6083 1.53789 15.6083H0.400391C2.35039 16.8541 4.78789 17.7749 7.27956 17.7749C15.3504 17.6666 19.9004 11.5458 19.9004 5.74992C19.9004 5.64159 19.9004 5.47909 19.9004 5.26242V5.20825C19.9004 5.15409 19.9004 5.15409 19.9004 5.09992C19.9004 4.93742 19.9004 4.82909 19.9004 4.72075C20.7671 4.12492 21.5254 3.31242 22.0671 2.44575C21.2546 2.77075 20.4421 3.04159 19.5754 3.14992C20.4421 2.66242 21.7421 1.36242 22.0671 0.333252Z" fill="#8D8D8D"/>
</svg>
