<svg width="27" height="26" viewBox="0 0 27 26" fill="none" xmlns="http://www.w3.org/2000/svg">
<g clip-path="url(#clip0_25_147)">
<path d="M12.8725 0.0499721C12.8501 0.0528321 12.712 0.0611521 12.5654 0.0694721C12.2666 0.0877241 11.6076 0.156 11.4276 0.189488C11.362 0.200668 11.2741 0.215904 11.2322 0.223028C10.6836 0.309348 9.99947 0.485264 9.24973 0.734916C8.87559 0.858988 7.84818 1.29147 7.56748 1.44342C7.49331 1.48341 7.4189 1.52295 7.34424 1.56203C5.62148 2.47286 4.11801 3.80494 2.89783 5.50243C2.46924 6.09799 1.96385 6.96571 1.68311 7.58774C1.37459 8.26982 1.21698 8.68561 1.02988 9.30353C0.926506 9.64236 0.828798 10.0066 0.803578 10.1404C0.798118 10.1752 0.775758 10.2812 0.754854 10.3774C0.66973 10.775 0.604106 11.1977 0.549714 11.6929C0.52023 11.9537 0.517578 12.0402 0.517578 12.8393C0.517578 13.5452 0.521686 13.7572 0.542538 13.9972C0.572022 14.3485 0.636242 14.8675 0.685018 15.1547C0.704674 15.2693 0.72823 15.4017 0.735354 15.4478C0.747938 15.5244 0.768842 15.6207 0.825938 15.8732C0.837118 15.9234 0.854018 15.9945 0.862338 16.0337C0.941898 16.3879 1.20985 17.2569 1.32581 17.5358C1.35369 17.6028 1.38457 17.6907 1.3957 17.7312C1.4138 17.8037 1.45134 17.8986 1.52815 18.0673C1.54926 18.1147 1.6023 18.2388 1.64697 18.3434C1.79912 18.7048 2.11741 19.3101 2.38958 19.7578C2.60735 20.1134 2.95919 20.6184 3.23848 20.9714C3.29292 21.0397 3.35423 21.1193 3.37519 21.1457C3.39469 21.1721 3.45194 21.2391 3.49947 21.2936C3.54845 21.348 3.62375 21.4332 3.66561 21.4819C3.92665 21.786 4.31623 22.1849 4.61481 22.4555C4.71133 22.5434 4.81449 22.6369 4.84517 22.6661C4.91361 22.7274 5.16227 22.9381 5.29206 23.0427C5.34365 23.0846 5.39383 23.1264 5.4023 23.1348C5.43017 23.1613 5.74441 23.3955 5.88944 23.4989C6.20508 23.722 6.71452 24.0527 6.97416 24.2031C7.20873 24.3399 7.59831 24.5464 7.86076 24.6734C8.04073 24.7612 8.08972 24.7835 8.27249 24.8672C8.79187 25.1016 9.66167 25.4028 10.2828 25.5619C11.0228 25.753 11.7445 25.8688 12.4748 25.9161C13.1629 25.9608 13.6712 25.9608 14.4221 25.9147C16.1743 25.8101 18.0142 25.2633 19.6504 24.3636C20.5912 23.8461 21.5713 23.1362 22.3308 22.4219C22.6044 22.1654 22.7147 22.0537 22.9436 21.8083C23.9306 20.7453 24.6565 19.67 25.2401 18.4118C25.4398 17.9794 25.8054 16.989 25.9172 16.5777C25.9255 16.547 25.9479 16.4688 25.9661 16.4031C26.0581 16.0907 26.1838 15.5315 26.2397 15.1966C26.2873 14.9051 26.318 14.6806 26.3443 14.4365C26.4099 13.7962 26.4296 13.2858 26.4073 12.7347C26.3779 11.9675 26.3444 11.623 26.2257 10.8449C26.1853 10.5812 26.0791 10.1 25.9661 9.66613C25.9088 9.44715 25.8822 9.35371 25.8112 9.11524C25.7805 9.01612 25.6157 8.53206 25.5739 8.42462C25.5292 8.30476 25.4719 8.15974 25.4579 8.12479C25.451 8.10935 25.4161 8.02568 25.3811 7.9379C25.268 7.65762 24.9832 7.05494 24.8451 6.8067C24.8004 6.72568 24.7431 6.62246 24.7179 6.5766C24.4933 6.16933 24.1051 5.57638 23.7785 5.14129C22.8069 3.84535 21.44 2.64306 19.9644 1.78667C19.233 1.36256 18.4889 1.02924 17.5563 0.70564C17.3747 0.642876 16.547 0.412724 16.3416 0.368056C16.2232 0.34226 16.1045 0.317127 15.9858 0.292656C15.9551 0.287196 15.8795 0.271752 15.8168 0.259168C15.7473 0.245495 15.6775 0.233911 15.6074 0.224432C15.5543 0.21736 15.426 0.199264 15.3226 0.182624C14.6791 0.0863201 14.023 0.0401961 13.3389 0.0444601C13.1057 0.0444601 12.8962 0.0471121 12.8725 0.0499721ZM13.801 1.08774C14.4473 1.11696 14.6051 1.13246 15.257 1.22866C15.3492 1.24129 15.5809 1.28315 15.7205 1.31097C15.7512 1.31789 15.8084 1.32907 15.846 1.33614C15.9075 1.34852 15.9537 1.35829 16.1603 1.40868C16.1867 1.41414 16.272 1.4365 16.3488 1.4574C16.4255 1.47836 16.5106 1.49926 16.5373 1.50618C16.5637 1.5119 16.6307 1.52994 16.6837 1.54658C16.7381 1.56343 16.8066 1.58298 16.8373 1.5913C16.8679 1.59962 16.9086 1.61221 16.9281 1.61788C16.9475 1.62479 17.016 1.6457 17.0816 1.66665C17.1948 1.7016 17.3621 1.7601 17.4237 1.78521C17.4389 1.79218 17.4991 1.81308 17.5563 1.83399C17.6134 1.85494 17.6735 1.87585 17.689 1.88276C17.7042 1.88989 17.8145 1.93315 17.9331 1.98047C18.052 2.028 18.1944 2.0879 18.2473 2.11167C18.3018 2.13663 18.38 2.17162 18.4219 2.18967C18.4637 2.20917 18.6368 2.29289 18.8058 2.37796C19.0668 2.51061 19.2246 2.59839 19.6014 2.81876C19.8528 2.96665 20.4448 3.37958 20.7379 3.61114C21.3759 4.1159 21.993 4.70174 22.4368 5.22621C22.4899 5.28772 22.5611 5.37144 22.5946 5.41185C22.656 5.48439 22.7453 5.60014 22.9688 5.89997C23.1418 6.13012 23.5481 6.75225 23.6444 6.93222C23.6627 6.96696 23.685 7.00476 23.6933 7.01594C23.7017 7.02712 23.7395 7.09249 23.7756 7.16238C23.812 7.23065 23.8469 7.29342 23.8524 7.30174C23.8678 7.32144 24.0632 7.71326 24.1148 7.82496C24.1372 7.87514 24.1847 7.9755 24.2196 8.04944C24.2532 8.12339 24.2867 8.19868 24.2922 8.21683C24.2979 8.23488 24.3174 8.2824 24.3354 8.32286C24.3537 8.36186 24.3689 8.39821 24.3689 8.40242C24.3689 8.40793 24.3801 8.43721 24.3956 8.4707C24.503 8.71629 24.7125 9.3159 24.8032 9.64517C24.8116 9.67585 24.827 9.72889 24.8367 9.76383C24.8465 9.79852 24.8617 9.85442 24.8703 9.88936C24.88 9.9241 24.8926 9.97017 24.8995 9.99393C24.9302 10.1041 25.0447 10.6159 25.0671 10.7402C25.0753 10.7892 25.0845 10.8381 25.0949 10.8867C25.113 10.973 25.1577 11.2659 25.1912 11.5212C25.2095 11.6551 25.243 12.0067 25.2611 12.2397C25.2975 12.7026 25.2917 13.5563 25.2499 14.0668C25.222 14.3932 25.1605 14.8409 25.0949 15.1828C25.0866 15.2203 25.0711 15.3026 25.06 15.364C25.0427 15.4601 25.0218 15.5555 24.9972 15.65C24.9903 15.6766 24.968 15.7644 24.9483 15.8454C24.9078 16.0085 24.9038 16.0239 24.852 16.2011C24.8311 16.2693 24.8072 16.3516 24.7989 16.3822C24.7906 16.4129 24.7697 16.4785 24.7514 16.5287C24.7334 16.5791 24.7179 16.6278 24.7179 16.6376C24.7179 16.6473 24.7125 16.6654 24.7055 16.6794C24.6984 16.692 24.6746 16.7534 24.6551 16.8147C24.6147 16.9374 24.5546 17.1062 24.5365 17.1494C24.5308 17.1649 24.5016 17.2402 24.4738 17.3168C24.4457 17.3936 24.4067 17.4899 24.3885 17.5303C24.3703 17.5707 24.3551 17.6083 24.3551 17.614C24.3551 17.6209 24.3216 17.6934 24.281 17.7785C24.2388 17.8633 24.1983 17.9489 24.1595 18.0353C24.1122 18.1413 23.8819 18.5959 23.8246 18.6978C23.8077 18.7285 23.763 18.8065 23.7268 18.8722C23.2968 19.6449 22.6099 20.5542 21.9497 21.2266C21.8561 21.32 21.7667 21.4011 21.7501 21.4051C21.7346 21.4094 21.6747 21.4037 21.6174 21.3925C21.5601 21.3816 21.4765 21.3675 21.4303 21.3618C21.2782 21.3466 20.9473 21.2406 20.7881 21.1569C20.6848 21.1024 20.4362 20.9394 20.2855 20.8262C20.2499 20.7996 20.2126 20.7754 20.1738 20.7537C20.1431 20.737 20.0803 20.6966 20.0343 20.6645C19.8653 20.5445 19.7174 20.4914 19.5234 20.4803C19.353 20.4705 19.2149 20.5 19.0598 20.578C18.8533 20.6826 18.6285 20.9408 18.5265 21.1876C18.5126 21.2225 18.4525 21.3285 18.3952 21.4246C18.2614 21.645 18.1245 21.7874 17.9821 21.8557C17.9291 21.8808 17.862 21.9129 17.8354 21.9267C17.809 21.9408 17.7489 21.9631 17.7028 21.9757C17.6569 21.9883 17.5884 22.0078 17.5492 22.0189C17.5045 22.0328 17.4139 22.0399 17.2965 22.0399C17.0928 22.0399 17.0621 22.037 16.8722 21.9868C16.4519 21.878 16.1812 21.6143 16.117 21.2517C16.096 21.1262 16.1087 20.3576 16.1379 20.0159C16.1491 19.8821 16.1603 19.6239 16.1631 19.4439C16.1657 19.1637 16.1631 19.1037 16.1422 19.0269C16.0569 18.7229 15.8448 18.4844 15.5111 18.3184C14.7502 17.939 13.611 18.1439 12.9801 18.7758C12.839 18.9154 12.7496 19.0381 12.6702 19.2C12.5682 19.4078 12.5627 19.437 12.5166 19.9741C12.4871 20.3228 12.5069 20.9211 12.5542 21.1108C12.5696 21.1695 12.5779 21.3005 12.5823 21.5572C12.5891 21.8949 12.5877 21.9255 12.5613 22.0035C12.5459 22.0496 12.5249 22.1152 12.5166 22.15C12.4719 22.3188 12.2722 22.5532 12.0797 22.6632C11.9958 22.7122 11.827 22.775 11.7403 22.7902C11.6385 22.8097 11.4752 22.8097 11.3592 22.7917C11.2448 22.7722 11.0019 22.6535 10.9195 22.5755C10.7841 22.4472 10.6515 22.1807 10.618 21.9645C10.5942 21.8181 10.6082 21.4986 10.6458 21.334C10.6808 21.1778 10.7072 20.8556 10.6974 20.6994C10.6765 20.3856 10.5398 20.0076 10.3401 19.7118C9.90035 19.0604 9.11708 18.6475 8.32002 18.6475C7.99341 18.6475 7.74334 18.7019 7.48376 18.8303C7.23676 18.953 7.03567 19.1275 6.88352 19.3534C6.75924 19.5388 6.73142 19.5961 6.6308 19.8764C6.56929 20.048 6.52602 20.1624 6.51344 20.1762C6.50798 20.1833 6.49534 20.2181 6.48562 20.253C6.42977 20.4594 6.25526 20.7622 6.1017 20.917C6.01658 21.0035 5.87134 21.1082 5.81269 21.1248C5.79459 21.1303 5.75824 21.1472 5.73183 21.1624C5.7052 21.1778 5.62985 21.2057 5.56423 21.2252C5.45253 21.2572 5.43163 21.2586 5.19435 21.2532C4.84517 21.2449 4.83826 21.242 4.64575 21.0439C4.47675 20.8723 4.21426 20.5682 4.02721 20.3298C3.43811 19.5766 2.96199 18.7982 2.60449 18.0072C2.55879 17.9046 2.51228 17.8024 2.46498 17.7005C2.42738 17.6195 2.37699 17.5037 2.35323 17.4424C2.32967 17.381 2.30451 17.3182 2.29879 17.303C2.21507 17.1174 2.02521 16.5679 1.95673 16.3195C1.93723 16.2469 1.91347 16.1619 1.90515 16.1312C1.89683 16.1005 1.88138 16.0475 1.87161 16.0127C1.83812 15.8956 1.82429 15.8383 1.80884 15.7546C1.79942 15.7103 1.78919 15.6661 1.77816 15.6222C1.76969 15.5955 1.75991 15.5482 1.75299 15.5175C1.74753 15.4868 1.72923 15.3961 1.71259 15.3152C1.67198 15.1157 1.65955 15.0474 1.6413 14.9246C1.63152 14.8675 1.61894 14.7922 1.61202 14.7572C1.60511 14.7225 1.59252 14.6346 1.58399 14.562C1.57567 14.4895 1.56449 14.3821 1.55758 14.325C1.55051 14.2677 1.53808 14.1267 1.52955 14.0138C1.52269 13.9008 1.51005 13.753 1.50173 13.6862C1.49481 13.6191 1.48769 13.2508 1.48769 12.8673C1.48769 12.1698 1.50033 11.9369 1.55617 11.4934C1.56309 11.4362 1.57567 11.3384 1.58399 11.2771C1.59252 11.2157 1.60776 11.1126 1.62039 11.0469C1.63298 10.9816 1.64837 10.8936 1.65529 10.8517C1.67479 10.736 1.69169 10.6454 1.71665 10.5379C1.72923 10.4835 1.74608 10.4081 1.75305 10.3705C1.75991 10.3315 1.77535 10.2631 1.78934 10.217C1.80148 10.1731 1.81267 10.1289 1.82288 10.0845C1.93442 9.58932 2.25006 8.68967 2.50965 8.13171C2.53341 8.08153 2.57673 7.98522 2.60595 7.91841C2.63679 7.84997 2.67865 7.7622 2.70101 7.72299C2.72337 7.68258 2.77349 7.58774 2.8127 7.51114C3.16578 6.82053 3.72983 5.97392 4.27848 5.31414C4.31337 5.27233 4.43344 5.13703 4.54373 5.01436C5.35483 4.1159 6.20227 3.4074 7.17805 2.80758C7.22277 2.77976 7.43909 2.65418 7.4978 2.62215C7.52848 2.60525 7.60097 2.56339 7.65827 2.53157C7.78661 2.45882 8.09112 2.30402 8.22377 2.24411C8.27821 2.22035 8.3688 2.17849 8.42605 2.15207C8.48335 2.1255 8.57555 2.0851 8.63145 2.06419C8.68584 2.04183 8.75838 2.01115 8.79187 1.99592C8.93976 1.92743 9.40329 1.75318 9.62673 1.68064C9.76079 1.63738 9.88371 1.59692 9.89895 1.58985C9.92272 1.58012 10.0092 1.55657 10.2479 1.49094C10.2788 1.48117 10.3318 1.46718 10.3667 1.4574C10.4742 1.42818 10.5383 1.41133 10.6109 1.39464C10.6501 1.38632 10.7157 1.37088 10.7575 1.3597C10.9097 1.32215 11.0297 1.29693 11.2251 1.2622C11.295 1.24961 11.383 1.23417 11.4207 1.22725C12.0545 1.1129 13.0498 1.0542 13.801 1.08774Z" fill="#8D8D8D"/>
<path d="M8.83253 4.00897C8.63998 4.07173 8.52683 4.26002 8.56317 4.45669C8.57149 4.49849 8.58553 4.54722 8.59385 4.56552C8.60217 4.58216 8.71678 4.70488 8.84798 4.83608L9.08666 5.07736L8.85489 5.31162C8.58699 5.57952 8.56177 5.61998 8.56317 5.77613C8.56317 5.89194 8.59385 5.96588 8.67206 6.04669C8.74887 6.1263 8.83113 6.15844 8.95546 6.15844C9.1047 6.15844 9.15514 6.1263 9.42305 5.8584L9.64509 5.63516L9.89084 5.8779C10.1129 6.09827 10.1421 6.12204 10.2105 6.14299C10.2524 6.15558 10.3096 6.16535 10.3375 6.16535C10.473 6.16535 10.6097 6.08449 10.6838 5.95891C10.7171 5.90171 10.7214 5.87935 10.7214 5.77473C10.7214 5.68555 10.7145 5.64229 10.695 5.60043C10.6796 5.56975 10.565 5.43995 10.4366 5.31016L10.2063 5.07741L10.438 4.84299C10.565 4.71461 10.681 4.58767 10.6936 4.56126C10.7088 4.53198 10.7214 4.46922 10.7256 4.40786C10.7326 4.27526 10.6976 4.18467 10.6071 4.0995C10.5203 4.02134 10.4618 3.99779 10.3375 3.99779C10.1868 3.99638 10.1364 4.02847 9.86988 4.29616L9.64784 4.51799L9.41332 4.28784C9.24853 4.12597 9.1606 4.04937 9.11448 4.02992C9.03076 3.99212 8.91074 3.98375 8.83253 4.00897ZM16.3866 4.01162C16.314 4.03819 16.2178 4.12877 16.18 4.20558C16.1396 4.28644 16.141 4.47754 16.1828 4.55434C16.1995 4.58502 16.314 4.71055 16.4369 4.83322C16.561 4.95594 16.6615 5.06197 16.6615 5.06904C16.6615 5.07736 16.5556 5.1903 16.4258 5.32015C16.219 5.53054 16.1883 5.56694 16.166 5.63397C16.1187 5.77899 16.1548 5.93375 16.2636 6.04269C16.3476 6.1249 16.3992 6.1444 16.543 6.1444C16.7063 6.1444 16.7203 6.13608 17.0079 5.85294L17.234 5.6297L17.4686 5.86126C17.7351 6.1263 17.7729 6.14986 17.9265 6.15131C18.147 6.15131 18.3132 5.98819 18.3146 5.76781C18.3146 5.61161 18.288 5.56975 18.0228 5.30184L17.7924 5.06904L18.0158 4.84726C18.2823 4.58076 18.3146 4.53058 18.3146 4.37988C18.3158 4.2543 18.2811 4.17063 18.1944 4.09404C18.1107 4.01729 18.0396 3.98926 17.925 3.98926C17.7729 3.98926 17.7351 4.01443 17.4686 4.27812L17.234 4.51108L17.0008 4.28093C16.8696 4.15254 16.7412 4.03965 16.7105 4.0242C16.6364 3.98801 16.4676 3.98234 16.3866 4.01162ZM12.0198 6.02719C11.5591 6.14013 11.2185 6.55026 11.1933 7.02315C11.164 7.55875 11.5242 8.03304 12.049 8.15149C12.1341 8.16975 12.3158 8.17385 13.462 8.17385C14.9208 8.17526 14.8538 8.17952 15.0687 8.08181C15.2962 7.97719 15.4833 7.79321 15.5936 7.56712C15.6746 7.40254 15.7024 7.28252 15.7024 7.0999C15.7039 6.91301 15.6732 6.78467 15.5867 6.6033C15.4511 6.32297 15.2154 6.13181 14.8816 6.03145C14.8034 6.00769 14.7029 6.00629 13.4646 6.00202C12.1788 5.99942 12.1273 6.00077 12.0198 6.02719ZM14.0579 6.54048L14.7002 6.5488L14.7796 6.58661C14.8914 6.63819 14.9919 6.7359 15.0464 6.84744C15.0882 6.93251 15.091 6.9478 15.091 7.08591C15.091 7.21835 15.087 7.24066 15.0506 7.31887C14.9794 7.47227 14.8105 7.60201 14.6484 7.62577C14.608 7.63269 14.0413 7.63409 13.3878 7.62988L12.2012 7.62297L12.1217 7.58516C12.01 7.53358 11.9095 7.43608 11.855 7.32438C11.8132 7.23806 11.8103 7.22402 11.8103 7.07894C11.8103 6.93802 11.8132 6.91852 11.8493 6.84458C11.9235 6.69669 12.0797 6.57402 12.2361 6.54334C12.3088 6.5293 13.1435 6.5279 14.0579 6.54048ZM5.34937 10.5256C5.14277 10.5744 4.98375 10.7182 4.91101 10.9177L4.87892 11.0068V13.2692C4.87892 15.6978 4.87606 15.5777 4.94881 15.7201C5.01724 15.8525 5.16939 15.9767 5.31869 16.0199C5.44442 16.0575 5.6258 16.0437 5.74441 15.9892C5.91341 15.911 6.03353 15.7717 6.08241 15.5972C6.10602 15.5109 6.10737 15.4258 6.10737 14.2319C6.10737 13.5091 6.11309 12.9582 6.12001 12.9582C6.13119 12.9582 6.47891 13.4019 7.69888 14.9738C8.00885 15.3728 8.29652 15.741 8.33833 15.7926C8.48356 15.9739 8.65256 16.0492 8.88292 16.038C8.98755 16.034 9.02249 16.0254 9.09784 15.9878C9.21505 15.9305 9.30438 15.8511 9.36595 15.7508C9.46366 15.5889 9.45799 15.7451 9.45799 13.2678C9.45799 11.1171 9.45653 11.0334 9.43157 10.951C9.33933 10.6569 9.04339 10.4657 8.75167 10.5144C8.5171 10.5534 8.33141 10.7139 8.25466 10.9469C8.23089 11.0194 8.22949 11.1059 8.22949 12.3194C8.22949 13.1285 8.22398 13.6137 8.21685 13.6111C8.20427 13.6068 7.91806 13.2414 6.29733 11.159C6.10337 10.9091 5.91892 10.6818 5.88684 10.654C5.81289 10.5869 5.73895 10.5508 5.63006 10.5242C5.52383 10.4992 5.4556 10.4992 5.34937 10.5256ZM12.673 10.5465C12.4289 10.5772 12.218 10.7724 12.1593 11.0208C12.1301 11.1504 12.1286 15.4382 12.1579 15.582C12.2138 15.8414 12.4134 16.0297 12.6744 16.0701C12.9621 16.1148 13.2343 15.9515 13.3488 15.6642C13.3712 15.607 13.374 15.5247 13.3809 14.7646L13.3878 13.9278L14.5395 13.9206L15.6913 13.9137L15.7961 13.8621C15.9263 13.7987 16.0312 13.6929 16.0935 13.5621C16.1353 13.473 16.1382 13.4589 16.1382 13.3056C16.1382 13.148 16.1367 13.1423 16.0863 13.0405C15.9929 12.8508 15.817 12.7238 15.6076 12.6931C15.5489 12.6848 15.0855 12.6793 14.4461 12.6793H13.3809V11.7726H14.5034C15.207 11.7726 15.6523 11.7671 15.6998 11.7586C16.1898 11.6651 16.3797 11.071 16.0307 10.7222C15.9385 10.6288 15.8072 10.5632 15.6775 10.5451C15.56 10.5285 12.8016 10.5299 12.673 10.5465ZM17.2451 10.6554C16.977 10.7432 16.8011 10.983 16.8011 11.2635C16.8011 11.5815 17.0343 11.8577 17.3498 11.9121C17.5369 11.9457 17.7239 11.8829 17.8706 11.7377C18.1972 11.4155 18.1164 10.8799 17.7113 10.6875C17.6122 10.64 17.5927 10.6359 17.4643 10.633C17.3569 10.6302 17.3065 10.6345 17.2451 10.6554ZM20.6473 11.9973C20.1503 12.0363 19.7314 12.2315 19.3699 12.5942C19.0739 12.8912 18.9065 13.1912 18.8088 13.6054C18.7822 13.7142 18.778 13.7756 18.778 14.0323C18.7765 14.3099 18.7794 14.3433 18.8144 14.4884C18.8813 14.7715 19.014 15.0532 19.1856 15.2805C19.2931 15.4215 19.4999 15.6141 19.6561 15.7187C19.9981 15.9474 20.3178 16.0506 20.7241 16.0646C20.9083 16.0701 20.9601 16.0672 21.0773 16.0423C21.2796 15.999 21.5185 15.8958 21.6581 15.787L21.6916 15.762L21.7907 15.8666C21.8661 15.9432 21.9164 15.9824 21.989 16.0157C22.0783 16.0589 22.095 16.0618 22.2319 16.0618C22.3671 16.0618 22.3855 16.0589 22.472 16.0171C22.6353 15.9405 22.7582 15.801 22.8167 15.6252C22.8447 15.5428 22.8461 15.5109 22.8461 14.6836C22.8461 13.9625 22.8419 13.8077 22.8238 13.6962C22.7568 13.2999 22.5502 12.8997 22.2626 12.6054C22.1411 12.4811 21.9316 12.3237 21.7767 12.2385C21.552 12.1157 21.2406 12.0196 21.0186 12.0027C20.9623 11.9988 20.9061 11.9946 20.8498 11.9901C20.8149 11.9875 20.7241 11.9901 20.6473 11.9973ZM20.9685 13.3558C21.0996 13.3892 21.1974 13.4463 21.2965 13.544C21.6454 13.89 21.5435 14.4494 21.0899 14.6698C20.9825 14.7228 20.981 14.7228 20.8078 14.7228C20.6362 14.7228 20.6319 14.7228 20.5258 14.6712C20.2691 14.5497 20.1084 14.307 20.1084 14.0392C20.107 13.8384 20.17 13.6905 20.3178 13.5426C20.4966 13.3655 20.7367 13.2972 20.9685 13.3558ZM17.2618 12.2552C17.0315 12.3166 16.8516 12.5244 16.8152 12.7699C16.7971 12.8997 16.7971 15.3295 16.8152 15.462C16.8444 15.6712 16.9813 15.8569 17.1739 15.9474C17.2549 15.985 17.2884 15.9922 17.4016 15.9962C17.5105 16.0004 17.5495 15.9962 17.6234 15.9712C17.7895 15.9153 17.9139 15.8107 17.9878 15.6642C18.0591 15.5247 18.0576 15.5528 18.0576 14.1132C18.0576 12.8327 18.0562 12.7616 18.0311 12.6806C18.0172 12.6347 17.9892 12.569 17.9697 12.537C17.925 12.4616 17.8007 12.3432 17.7253 12.304C17.5887 12.2343 17.4099 12.2162 17.2618 12.2552ZM10.5427 14.5818C10.2426 14.6878 10.0444 14.9655 10.0444 15.2793C10.0444 15.4857 10.1072 15.6391 10.251 15.7912C10.5386 16.0967 11.0048 16.1022 11.3021 15.805C11.6484 15.4591 11.5757 14.8902 11.1543 14.6446C10.9784 14.5428 10.7283 14.5162 10.5427 14.5818Z" fill="#8D8D8D"/>
</g>
<defs>
<clipPath id="clip0_25_147">
<rect width="26" height="26" fill="white" transform="translate(0.46875)"/>
</clipPath>
</defs>
</svg>
