<svg width="20" height="20" viewBox="0 0 20 20" fill="none" xmlns="http://www.w3.org/2000/svg">
<path d="M5.78385 0.25C2.80469 0.25 0.367188 2.6875 0.367188 5.66667V14.3333C0.367188 17.3125 2.80469 19.75 5.78385 19.75H14.4505C17.4297 19.75 19.8672 17.3125 19.8672 14.3333V5.66667C19.8672 2.6875 17.4297 0.25 14.4505 0.25H5.78385ZM16.6172 2.41667C17.213 2.41667 17.7005 2.90417 17.7005 3.5C17.7005 4.09583 17.213 4.58333 16.6172 4.58333C16.0214 4.58333 15.5339 4.09583 15.5339 3.5C15.5339 2.90417 16.0214 2.41667 16.6172 2.41667ZM10.1172 4.58333C13.0964 4.58333 15.5339 7.02083 15.5339 10C15.5339 12.9792 13.0964 15.4167 10.1172 15.4167C7.13802 15.4167 4.70052 12.9792 4.70052 10C4.70052 7.02083 7.13802 4.58333 10.1172 4.58333ZM10.1172 6.75C8.32969 6.75 6.86719 8.2125 6.86719 10C6.86719 11.7875 8.32969 13.25 10.1172 13.25C11.9047 13.25 13.3672 11.7875 13.3672 10C13.3672 8.2125 11.9047 6.75 10.1172 6.75Z" fill="#8D8D8D"/>
</svg>
