<svg width="22" height="18" viewBox="0 0 22 18" fill="none" xmlns="http://www.w3.org/2000/svg">
<path d="M21.3993 2.71659C21.1285 1.79575 20.4243 1.03742 19.5035 0.820752C17.7702 0.333252 10.9993 0.333252 10.9993 0.333252C10.9993 0.333252 4.22852 0.333252 2.54935 0.766585C1.62852 1.03742 0.870182 1.74159 0.653516 2.66242C0.166016 4.39575 0.166016 8.99992 0.166016 8.99992C0.166016 8.99992 0.166016 13.6041 0.599349 15.2833C0.870182 16.2041 1.57435 16.9624 2.49518 17.1791C4.22852 17.6666 10.9993 17.6666 10.9993 17.6666C10.9993 17.6666 17.7702 17.6666 19.4493 17.2333C20.3702 16.9624 21.1285 16.2583 21.3452 15.3374C21.8327 13.6041 21.8327 8.99992 21.8327 8.99992C21.8327 8.99992 21.8327 4.39575 21.3993 2.71659ZM8.83268 12.7374V5.26242L15.3327 8.99992L8.83268 12.7374Z" fill="#8D8D8D"/>
</svg>
